<?xml version="1.0" ?><svg viewBox="0 0 64 64" xmlns="http://www.w3.org/2000/svg"><title/><g data-name="28-Calendar" id="_28-Calendar"><rect height="52" style="fill:#e3e3e3" width="62" x="1" y="6"/><rect height="10" style="fill:#ff5d54" width="50" x="7" y="21"/><polygon points="7 31 7 41 7 47 21 47 21 41 57 41 57 31 7 31" style="fill:#34c1ad"/><rect height="6" style="fill:#f5f5f5" width="36" x="21" y="41"/><rect height="6" rx="2" style="fill:#21abab" width="4" x="53" y="3"/><rect height="6" rx="2" style="fill:#21abab" width="4" x="39" y="3"/><rect height="6" rx="2" style="fill:#21abab" width="4" x="21" y="3"/><rect height="6" rx="2" style="fill:#21abab" width="4" x="7" y="3"/><polygon points="7.146 26.203 6.854 25.797 13.854 20.797 14.146 21.203 7.146 26.203" style="fill:#f5f5f5"/><polygon points="14.146 26.203 13.854 25.797 20.854 20.797 21.146 21.203 14.146 26.203" style="fill:#f5f5f5"/><polygon points="21.146 26.203 20.854 25.797 27.854 20.797 28.146 21.203 21.146 26.203" style="fill:#f5f5f5"/><polygon points="28.146 26.203 27.854 25.797 34.854 20.797 35.146 21.203 28.146 26.203" style="fill:#f5f5f5"/><polygon points="35.146 26.203 34.854 25.797 41.854 20.797 42.146 21.203 35.146 26.203" style="fill:#f5f5f5"/><polygon points="42.146 26.203 41.854 25.797 48.854 20.797 49.146 21.203 42.146 26.203" style="fill:#f5f5f5"/><polygon points="49.133 26.212 48.867 25.788 56.867 20.788 57.133 21.212 49.133 26.212" style="fill:#f5f5f5"/><polygon points="7.146 31.203 6.854 30.797 13.854 25.797 14.146 26.203 7.146 31.203" style="fill:#f5f5f5"/><polygon points="14.146 31.203 13.854 30.797 20.854 25.797 21.146 26.203 14.146 31.203" style="fill:#f5f5f5"/><polygon points="21.146 31.203 20.854 30.797 27.854 25.797 28.146 26.203 21.146 31.203" style="fill:#f5f5f5"/><polygon points="28.146 31.203 27.854 30.797 34.854 25.797 35.146 26.203 28.146 31.203" style="fill:#f5f5f5"/><polygon points="35.146 31.203 34.854 30.797 41.854 25.797 42.146 26.203 35.146 31.203" style="fill:#f5f5f5"/><polygon points="42.146 31.203 41.854 30.797 48.854 25.797 49.146 26.203 42.146 31.203" style="fill:#f5f5f5"/><polygon points="49.133 31.212 48.867 30.788 56.867 25.788 57.133 26.212 49.133 31.212" style="fill:#f5f5f5"/><path d="M57,20.5H7a.5.5,0,0,0-.5.5V47a.5.5,0,0,0,.5.5H57a.5.5,0,0,0,.5-.5V21A.5.5,0,0,0,57,20.5Zm-.5,5h-7v-4h7Zm-42,15v-4h6v4Zm6,1v5h-6v-5Zm1-10h6v4h-6Zm-1,4h-6v-4h6Zm14-5h-6v-4h6Zm1-4h6v4h-6Zm-8,4h-6v-4h6Zm1,1h6v4h-6Zm7,0h6v4h-6Zm7,0h6v4h-6Zm0-1v-4h6v4Zm0-5v-4h6v4Zm-1,0h-6v-4h6Zm-7,0h-6v-4h6Zm-7,0h-6v-4h6Zm-7,0h-6v-4h6Zm0,1v4h-6v-4Zm-7,4h-6v-4h6Zm0,1v4h-6v-4Zm0,5v4h-6v-4Zm8,0h6v4h-6Zm7,0h6v4h-6Zm7,0h6v4h-6Zm7,0h6v4h-6Zm7,0h7v4h-7Zm0-1v-4h7v4Zm0-5v-4h7v4Zm-36-9v4h-6v-4Zm-6,20h6v5h-6Zm14,5v-5h35v5Z" style="fill:#3d3d3d"/><path d="M55,6V4a1.972,1.972,0,0,1,.263-.973A1.905,1.905,0,0,0,55,3a2,2,0,0,0-2,2V7a1.993,1.993,0,0,0,3.737.973A1.993,1.993,0,0,1,55,6Z" style="fill:#13969d"/><path d="M41,6V4a1.972,1.972,0,0,1,.263-.973A1.905,1.905,0,0,0,41,3a2,2,0,0,0-2,2V7a1.993,1.993,0,0,0,3.737.973A1.993,1.993,0,0,1,41,6Z" style="fill:#13969d"/><path d="M23,6V4a1.972,1.972,0,0,1,.263-.973A1.905,1.905,0,0,0,23,3a2,2,0,0,0-2,2V7a1.993,1.993,0,0,0,3.737.973A1.993,1.993,0,0,1,23,6Z" style="fill:#13969d"/><path d="M9,6V4a1.972,1.972,0,0,1,.263-.973A1.905,1.905,0,0,0,9,3,2,2,0,0,0,7,5V7a1.993,1.993,0,0,0,3.737.973A1.993,1.993,0,0,1,9,6Z" style="fill:#13969d"/><path d="M55,9a2,2,0,0,1-2-2V6H52V8a2,2,0,0,0,3.82.82A1.99,1.99,0,0,1,55,9Z" style="fill:#bfbfbf"/><path d="M41,9a2,2,0,0,1-2-2V6H38V8a2,2,0,0,0,3.82.82A1.99,1.99,0,0,1,41,9Z" style="fill:#bfbfbf"/><path d="M23,9a2,2,0,0,1-2-2V6H20V8a2,2,0,0,0,3.82.82A1.99,1.99,0,0,1,23,9Z" style="fill:#bfbfbf"/><path d="M9,9A2,2,0,0,1,7,7V6H6V8a2,2,0,0,0,3.82.82A1.99,1.99,0,0,1,9,9Z" style="fill:#bfbfbf"/><rect height="2" style="fill:#13969d" width="4" x="6" y="11"/><rect height="2" style="fill:#13969d" width="9" x="6" y="14"/><rect height="2" style="fill:#13969d" width="2" x="12" y="17"/><rect height="2" style="fill:#13969d" width="2" x="19" y="17"/><rect height="2" style="fill:#13969d" width="2" x="26" y="17"/><rect height="2" style="fill:#13969d" width="2" x="33" y="17"/><rect height="2" style="fill:#13969d" width="2" x="40" y="17"/><rect height="2" style="fill:#13969d" width="2" x="47" y="17"/><rect height="2" style="fill:#13969d" width="2" x="55" y="17"/><rect height="7" style="fill:#3d3d3d" width="1" x="27.5" y="49"/><path d="M34.5,49h-1v3.5h-2V49h-1v4a.5.5,0,0,0,.5.5h2.5V56h1V53.5H36v-1H34.5Z" style="fill:#3d3d3d"/><path d="M41.828,49H40a.472.472,0,0,0-.5.438v6.124A.472.472,0,0,0,40,56h1.828A2.524,2.524,0,0,0,44.5,53.662V51.338A2.524,2.524,0,0,0,41.828,49ZM43.5,53.662a1.58,1.58,0,0,1-1.672,1.463H40.5v-5.25h1.328A1.58,1.58,0,0,1,43.5,51.338Z" style="fill:#3d3d3d"/><path d="M49,49a2.423,2.423,0,0,0-2.5,2.333V56h1V53.667h3V56h1V51.333A2.423,2.423,0,0,0,49,49Zm-1.5,3.733v-1.4a1.5,1.5,0,0,1,3,0v1.4Z" style="fill:#3d3d3d"/><path d="M56.5,49v1a1.5,1.5,0,0,1-3,0V49h-1v1a2.5,2.5,0,0,0,2,2.449V56h1V52.449A2.5,2.5,0,0,0,57.5,50V49Z" style="fill:#3d3d3d"/><rect height="3" style="fill:#bfbfbf" width="62" x="1" y="58"/><path d="M1,58v3H6a2,2,0,0,1,2-2H63V58Z" style="fill:#a3a3a3"/></g></svg>