<?xml version="1.0" ?><svg viewBox="0 0 64 64" xmlns="http://www.w3.org/2000/svg"><title/><g data-name="21-Measure the fever" id="_21-Measure_the_fever"><path d="M52,28.1s2.88,0,2.88,1.8S52,32.61,52,32.61Z" style="fill:#f2a283"/><path d="M12,25l-.05-.13,2.04-.78c-.04,1-.83,2.56-.92,4.05a2,2,0,0,1-2,1.86H9.51C10.22,27.67,11.11,25.44,12,25Z" style="fill:#34c1ad"/><rect height="6" style="fill:#34c1ad" width="6" x="1" y="17"/><path d="M7,24a2.006,2.006,0,0,1-2,2H3a2,2,0,0,1-2-2V23H7Z" style="fill:#bfbfbf"/><path d="M7,23V16a2.006,2.006,0,0,0-2-2H9l6.22.8A2,2,0,0,1,17,16.79v4.77a2.009,2.009,0,0,1-1.37,1.9l-1.64.63-2.04.78L9,26H5a2.006,2.006,0,0,0,2-2Z" style="fill:#e3e3e3"/><path d="M5,14a2.006,2.006,0,0,1,2,2v1H1V16a2.006,2.006,0,0,1,2-2Z" style="fill:#bfbfbf"/><rect height="6" style="fill:#21abab" width="2" x="5" y="17"/><path d="M5,24a2.006,2.006,0,0,1-2,2H5a2.006,2.006,0,0,0,2-2V23H5Z" style="fill:#a3a3a3"/><path d="M5,14H3a2.006,2.006,0,0,1,2,2v1H7V16A2.006,2.006,0,0,0,5,14Z" style="fill:#a3a3a3"/><path d="M9,26l2.95-1.13L12,25c-.89.44-1.78,2.67-2.49,5C8.62,32.91,8,36,8,36v5.74a3.184,3.184,0,0,1-.96,2.3,3.184,3.184,0,0,1-2.3.96,3.254,3.254,0,0,1-2.71-1.45l-.48-.73A3.216,3.216,0,0,1,1,41.01V40c0-7,3-7,3-10a3.275,3.275,0,0,0-1.21-2.45A2.2,2.2,0,0,1,2,25.88v-.15A2,2,0,0,0,3,26H9Z" style="fill:#e3e3e3"/><path d="M39,37V47.73A39.314,39.314,0,0,1,34,48S18,49,18,34C18,34,29,37,39,37Z" style="fill:#e3e3e3"/><path d="M18.78,30H20a91.931,91.931,0,0,0,24,3V46s-.6,1.19-5,1.73V37c-10,0-21-3-21-3V30Z" style="fill:#f5f5f5"/><path d="M60.28,58.11C54.27,58.87,46,63,46,63H35c2-4,11-7,11-7a23.11,23.11,0,0,1,8.01-1.92c.63-.05,1.3-.08,1.99-.08l6,4A15,15,0,0,0,60.28,58.11Z" style="fill:#164b8d"/><path d="M34,51v3l-1,1s-5,3-5,8H24c0-6,6-9,6-9V51Z" style="fill:#13969d"/><path d="M63,61v2H46s8.27-4.13,14.28-4.89C61.8,58.76,63,59.91,63,61Z" style="fill:#34c1ad"/><path d="M54,54l.01.08A23.11,23.11,0,0,0,46,56s-9,3-11,7H28c0-5,5-8,5-8l1-1,3-3,14.17-2H54Z" style="fill:#34c1ad"/><path d="M51.17,49,37,51l-3,3V48a39.314,39.314,0,0,0,5-.27c4.4-.54,5-1.73,5-1.73v-.07A19.3,19.3,0,0,0,52,36V49Z" style="fill:#f2a283"/><path d="M53.33,26H45c-7.24,0-14-13-20-13a6.437,6.437,0,0,1-4,3V26c0,.94-1.15,2.63-2.22,4H20a91.931,91.931,0,0,0,24,3V45.93A19.3,19.3,0,0,0,52,36l3.17-1.21A3.582,3.582,0,0,0,57,31.25V29.2A3.579,3.579,0,0,0,53.33,26ZM52,32.61V28.1s2.88,0,2.88,1.8S52,32.61,52,32.61Z" style="fill:#f2c4b2"/><path d="M63,24.23c0,2.68-1.39,8.55-5,11.62l-1.56,1.4A7.043,7.043,0,0,0,54,42.5V43H52V36l3.17-1.21A3.582,3.582,0,0,0,57,31.25V29.2A3.579,3.579,0,0,0,53.33,26H45c-7.24,0-14-13-20-13a6.437,6.437,0,0,1-4,3V14.55a12.845,12.845,0,0,1,4.41-9.58A15.915,15.915,0,0,1,36.06,1h8.08C54.56,1,63,8.2,63,17.09Z" style="fill:#5e3616"/><path d="M52,20H50C35.628,20,28.605,4.4,28.042,3.1A15.106,15.106,0,0,0,25.41,4.97,12.845,12.845,0,0,0,21,14.55V16a6.437,6.437,0,0,0,4-3c6,0,12.76,13,20,13h8.33A3.579,3.579,0,0,1,57,29.2V25A5,5,0,0,0,52,20Z" style="fill:#452810"/><path d="M54.821,34.923,52,36v7h2v-.5a6.935,6.935,0,0,1,1.828-4.634A2.47,2.47,0,0,1,54.821,34.923Z" style="fill:#452810"/><path d="M44,45.93V46s-.6,1.19-5,1.73A39.314,39.314,0,0,1,34,48v6l3-3,4.835-.682L52,41V36A19.3,19.3,0,0,1,44,45.93Z" style="fill:#ed9776"/><path d="M25,15a6.459,6.459,0,0,1,5,3,18.5,18.5,0,0,0,13.9,7.894C37.075,24.7,30.7,13,25,13a6.437,6.437,0,0,1-4,3v2.491C22.745,17.925,25,16.84,25,15Z" style="fill:#f2a283"/><path d="M11.439,28.684,12,27c0-.807,1.289-1.605,1.791-1.886a4.724,4.724,0,0,0,.2-1.024l-2.04.78L12,25c-.89.44-1.78,2.67-2.49,5h1.56a1.985,1.985,0,0,0,.782-.162A1,1,0,0,1,11.439,28.684Z" style="fill:#13969d"/><path d="M6,43a2,2,0,0,1-2-2V37c0-4,2-5,2-5V30a2,2,0,0,1,2-2h2l.215-.072C10.771,26.471,11.385,25.3,12,25l-.05-.13L9,26H3a2,2,0,0,1-1-.27v.15a2.2,2.2,0,0,0,.79,1.67A3.275,3.275,0,0,1,4,30c0,3-3,3-3,10v1.01a3.216,3.216,0,0,0,.55,1.81l.48.73A3.254,3.254,0,0,0,4.74,45a3.184,3.184,0,0,0,2.3-.96A3.184,3.184,0,0,0,8,41.74V41A2,2,0,0,1,6,43Z" style="fill:#d4d4d4"/><path d="M14,23H12a3,3,0,0,1-3-3V14H5a2.006,2.006,0,0,1,2,2v8a2.006,2.006,0,0,1-2,2H9l2.95-1.13,2.04-.78,1.64-.63A2.009,2.009,0,0,0,17,21.56V20A3,3,0,0,1,14,23Z" style="fill:#d4d4d4"/><path d="M10,10H8A3.669,3.669,0,0,1,9.279,7.307C9.766,6.8,10,6.533,10,6s-.234-.8-.721-1.307l1.442-1.386A3.667,3.667,0,0,1,12,6a3.669,3.669,0,0,1-1.279,2.693C10.234,9.2,10,9.467,10,10Z" style="fill:#c74841"/><path d="M18,10H16a3.669,3.669,0,0,1,1.279-2.693C17.766,6.8,18,6.533,18,6s-.234-.8-.721-1.307l1.442-1.386A3.667,3.667,0,0,1,20,6a3.669,3.669,0,0,1-1.279,2.693C18.234,9.2,18,9.467,18,10Z" style="fill:#c74841"/><path d="M2,10H0A3.669,3.669,0,0,1,1.279,7.307C1.766,6.8,2,6.533,2,6s-.234-.8-.721-1.307L2.721,3.307A3.667,3.667,0,0,1,4,6,3.669,3.669,0,0,1,2.721,8.693C2.234,9.2,2,9.467,2,10Z" style="fill:#c74841"/><path d="M20.7,34.66C19.015,34.276,18,34,18,34c0,15,16,14,16,14a39.314,39.314,0,0,0,5-.27v-2.4C26.379,45.427,22.121,39.21,20.7,34.66Z" style="fill:#bfbfbf"/><path d="M39,45.325v2.4c4.4-.54,5-1.73,5-1.73V45A45.038,45.038,0,0,1,39,45.325Z" style="fill:#e3e3e3"/><path d="M20,30H18v4s1.015.276,2.7.66A14.666,14.666,0,0,1,20,30Z" style="fill:#e3e3e3"/><rect height="2" rx="1" style="fill:#452810" width="9" x="23" y="24"/><path d="M22.986,22.481c-.034.006-.068.011-.1.015A.84.84,0,0,1,22,21.75c0-.091.057-2.25,5-2.25s5,2.159,5,2.25a.769.769,0,0,1-.562.675,1.049,1.049,0,0,1-.994-.2c-.139-.1-.246-.228-.393-.324a2.155,2.155,0,0,0-.5-.213,10.369,10.369,0,0,0-1.381-.377,6.115,6.115,0,0,0-3.714.491A5.862,5.862,0,0,1,22.986,22.481Z" style="fill:#3b220e"/><path d="M44,32c-7.531,0-22.146-3.543-23.835-3.959A22.474,22.474,0,0,1,18.78,30H20a91.931,91.931,0,0,0,24,3V45.93a15.879,15.879,0,0,0,2-1.37V32Z" style="fill:#f2b59d"/><path d="M44.759,33.65l6-7A.994.994,0,0,0,51,26H48.683l-5.311,6.2-1.556.778C42.533,32.99,43.26,33,44,33v1.118l.447-.223A1,1,0,0,0,44.759,33.65Z" style="fill:#f5f5f5"/><path d="M52,35a1,1,0,0,0-.6.2L44,40.75V43a1,1,0,0,0,.6-.2l6.646-4.984A15.912,15.912,0,0,0,52,36l2.4-.915A.979.979,0,0,0,54,35Z" style="fill:#f5f5f5"/><path d="M32,51v3s-4,2-5,6v.5a1.5,1.5,0,0,1-2.8.726A8.615,8.615,0,0,0,24,63h4c0-5,5-8,5-8l1-1V51Z" style="fill:#107c82"/><path d="M60.28,58.11C54.27,58.87,46,63,46,63h6.043a2,2,0,0,1,1.19-1.568,18.735,18.735,0,0,1,9.411-1.486A5.3,5.3,0,0,0,60.28,58.11Z" style="fill:#13969d"/><path d="M50.005,59.493a7.944,7.944,0,0,1-2.6.693c-4.774.42-6.01-.877-5.684-2.415C39.107,59.031,36.064,60.871,35,63H46s8.27-4.13,14.28-4.89A15,15,0,0,1,62,58l-1.392-.928A30.352,30.352,0,0,0,50.005,59.493Z" style="fill:#072c58"/><path d="M54,54V52c-11,0-17,5-17,5a4.333,4.333,0,0,1-4-2s-5,3-5,8h7c2-4,11-7,11-7a23.11,23.11,0,0,1,8.01-1.92Z" style="fill:#13969d"/><rect height="2" style="fill:#34c1ad" width="5" x="10" y="17"/><rect height="2" style="fill:#34c1ad" width="5" x="10" y="20"/></g></svg>